<svg width="750" height="284" viewBox="0 0 750 284" fill="none" xmlns="http://www.w3.org/2000/svg">
<path d="M141.781 283.781C220.085 283.781 283.562 220.303 283.562 142C283.562 63.6964 220.085 0.218872 141.781 0.218872C63.4775 0.218872 -3.05176e-05 63.6964 -3.05176e-05 142C-3.05176e-05 220.303 63.4775 283.781 141.781 283.781Z" fill="#292826"/>
<path d="M172.629 135.681V149.441H119.085V205.801H102.259V78.1985H181.303V92.0581H119.085V135.681H172.629Z" fill="white"/>
<path d="M398.637 148.733C384.596 144.705 374.373 139.747 367.968 133.859C361.578 127.971 358.383 120.709 358.383 112.071C358.383 102.284 362.29 94.1883 370.103 87.7827C377.932 81.3932 388.098 78.1985 400.602 78.1985C409.143 78.1985 416.754 79.8484 423.434 83.1483C430.115 86.4482 435.283 90.9936 438.939 96.7845C442.611 102.592 444.447 108.933 444.447 115.807H427.996C427.996 108.302 425.602 102.406 420.814 98.119C416.042 93.8162 409.305 91.6649 400.602 91.6649C392.531 91.6649 386.23 93.4442 381.701 97.0029C377.188 100.562 374.931 105.495 374.931 111.804C374.931 116.867 377.075 121.145 381.361 124.639C385.664 128.133 392.975 131.336 403.296 134.248C413.616 137.143 421.687 140.338 427.511 143.832C433.35 147.326 437.677 151.41 440.492 156.085C443.306 160.744 444.714 166.227 444.714 172.536C444.714 182.597 440.791 190.661 432.946 196.727C425.084 202.777 414.586 205.801 401.451 205.801C392.927 205.801 384.968 204.168 377.576 200.9C370.184 197.633 364.482 193.152 360.47 187.458C356.458 181.78 354.453 175.326 354.453 168.096H370.928C370.928 175.601 373.702 181.53 379.25 185.881C384.782 190.232 392.183 192.408 401.451 192.408C410.106 192.408 416.738 190.645 421.348 187.118C425.942 183.592 428.239 178.788 428.239 172.706C428.239 166.624 426.112 161.916 421.857 158.584C417.587 155.268 409.847 151.984 398.637 148.733ZM468.856 89.4569H484.628V111.804H501.855V124.008H484.628V181.247C484.628 184.935 485.396 187.709 486.933 189.569C488.469 191.413 491.082 192.335 494.77 192.335C496.598 192.335 499.105 191.995 502.292 191.316V204.103C498.134 205.235 494.099 205.801 490.184 205.801C483.131 205.801 477.809 203.674 474.218 199.42C470.644 195.15 468.856 189.092 468.856 181.247V124.008H452.041V111.804H468.856V89.4569ZM514.399 158.22V157.104C514.399 148.062 516.179 139.925 519.737 132.695C523.296 125.48 528.238 119.908 534.562 115.977C540.903 112.063 548.142 110.105 556.278 110.105C568.847 110.105 579.013 114.457 586.778 123.159C594.542 131.862 598.425 143.436 598.425 157.881V158.972C598.425 167.966 596.702 176.03 593.256 183.163C589.827 190.297 584.91 195.853 578.504 199.833C572.114 203.812 564.763 205.801 556.448 205.801C543.944 205.801 533.81 201.45 526.046 192.748C518.281 184.061 514.399 172.552 514.399 158.22ZM530.268 158.972C530.268 169.212 532.646 177.429 537.401 183.624C542.141 189.82 548.49 192.917 556.448 192.917C564.471 192.917 570.845 189.779 575.568 183.503C580.291 177.211 582.653 168.411 582.653 157.104C582.653 146.978 580.243 138.777 575.422 132.501C570.618 126.208 564.237 123.062 556.278 123.062C548.498 123.062 542.213 126.16 537.425 132.355C532.654 138.567 530.268 147.439 530.268 158.972ZM662.82 111.294V125.974C660.443 125.569 657.854 125.367 655.056 125.367C644.704 125.367 637.683 129.775 633.995 138.591V204.103H618.224V111.804H633.558L633.825 122.48C639.002 114.23 646.337 110.105 655.833 110.105C658.906 110.105 661.235 110.502 662.82 111.294ZM714.017 205.801C701.497 205.801 691.314 201.693 683.469 193.475C675.624 185.258 671.701 174.275 671.701 160.525V157.614C671.701 148.458 673.448 140.281 676.942 133.083C680.436 125.901 685.329 120.272 691.621 116.195C697.898 112.135 704.708 110.105 712.052 110.105C724.054 110.105 733.379 114.052 740.028 121.946C746.676 129.856 750 141.179 750 155.915V162.466H687.472C687.699 171.573 690.36 178.925 695.455 184.522C700.551 190.119 707.021 192.917 714.866 192.917C720.431 192.917 725.146 191.785 729.012 189.52C732.878 187.24 736.267 184.223 739.178 180.47L748.811 187.992C741.079 199.865 729.481 205.801 714.017 205.801ZM712.052 123.062C705.678 123.062 700.332 125.383 696.013 130.026C691.694 134.652 689.017 141.147 687.982 149.51H734.229V148.321C733.776 140.297 731.616 134.086 727.75 129.686C723.884 125.27 718.651 123.062 712.052 123.062Z" fill="#292826"/>
</svg>
